<?xml version="1.0" encoding="UTF-8"?>
<svg version="1.1" xmlns="http://www.w3.org/2000/svg" width="1280" height="1280">
<path d="M0 0 C422.4 0 844.8 0 1280 0 C1280 422.4 1280 844.8 1280 1280 C857.6 1280 435.2 1280 0 1280 C0 857.6 0 435.2 0 0 Z " fill="#EFEFEF" transform="translate(0,0)"/>
<path d="M0 0 C2.36962974 -0.00437156 4.73738659 -0.0408457 7.10668945 -0.07861328 C17.95477204 -0.15838066 27.64841182 1.4075951 38.06958008 4.37060547 C38.95460205 4.61681641 39.83962402 4.86302734 40.75146484 5.11669922 C55.09222504 9.35099142 69.3199201 16.82329204 80.06958008 27.37060547 C80.06958008 28.03060547 80.06958008 28.69060547 80.06958008 29.37060547 C80.63290039 29.59361328 81.1962207 29.81662109 81.77661133 30.04638672 C98.35495627 39.62059274 108.49667812 67.34212944 113.38322449 84.7539978 C117.34833019 99.74795632 118.61682089 114.39362226 118.50708008 129.87060547 C118.50251801 131.2419162 118.50251801 131.2419162 118.49786377 132.64093018 C118.2881284 175.44092729 106.44734857 219.22509961 76.06958008 250.74560547 C64.06467812 262.37060547 64.06467812 262.37060547 59.06958008 262.37060547 C59.06958008 266.99060547 59.06958008 271.61060547 59.06958008 276.37060547 C60.02735352 276.60134766 60.98512695 276.83208984 61.97192383 277.06982422 C63.31718061 277.39841441 64.66221495 277.72791596 66.00708008 278.05810547 C67.07623657 278.31950317 67.07623657 278.31950317 68.16699219 278.58618164 C72.03804121 279.55088303 75.86418399 280.5904236 79.67114258 281.78466797 C80.79081421 282.13331909 80.79081421 282.13331909 81.93310547 282.48901367 C83.36595595 282.94128345 84.79513283 283.4054154 86.21972656 283.88305664 C93.31016429 286.11275945 98.39325769 284.93061887 104.94458008 281.80810547 C114.81552348 277.40562207 125.14779551 274.39074501 135.45629883 271.18896484 C138.33999082 270.28592527 141.20888502 269.34403643 144.06958008 268.37060547 C143.44051758 267.79955078 142.81145508 267.22849609 142.16333008 266.64013672 C130.62579597 255.71075576 124.49347913 243.42649197 120.06958008 228.37060547 C119.80032715 227.50209961 119.53107422 226.63359375 119.25366211 225.73876953 C116.84675181 217.27091258 116.51184995 208.98537394 116.56958008 200.24560547 C116.5716748 199.51860443 116.57376953 198.79160339 116.57592773 198.04257202 C116.70152496 176.8925218 121.75750163 159.20875972 136.71801758 143.55419922 C143.06545208 137.6601529 150.0018711 133.46036635 158.06958008 130.37060547 C159.58551758 129.78279297 159.58551758 129.78279297 161.13208008 129.18310547 C178.30680316 124.43265015 199.03711762 126.08215711 214.94458008 134.05810547 C230.09698943 143.1131489 240.20996242 157.22818475 245.13989258 174.01513672 C245.87245575 177.12675215 246.51871702 180.22221123 247.06958008 183.37060547 C247.3422168 184.75699219 247.3422168 184.75699219 247.62036133 186.17138672 C251.02141998 210.39283923 245.00372751 237.22730866 231.06958008 257.37060547 C227.73799652 261.56889249 224.54437227 265.38741068 220.06958008 268.37060547 C221.24391602 268.73412109 222.41825195 269.09763672 223.62817383 269.47216797 C287.48009329 289.35028044 287.48009329 289.35028044 302.06958008 316.37060547 C303.76400856 319.96583513 304.9939933 323.54629692 306.06958008 327.37060547 C306.51817383 328.91748047 306.51817383 328.91748047 306.97583008 330.49560547 C309.10766012 339.49666565 309.48920349 348.59302269 309.65222168 357.81216431 C309.68030622 359.25983357 309.7194919 360.70733292 309.7701416 362.15438843 C310.1430842 373.78942763 310.1430842 373.78942763 307.53735352 377.62744141 C302.99911751 381.58632814 299.584842 382.49517237 293.6003418 382.48413086 C292.60503952 382.4843499 292.60503952 382.4843499 291.58963013 382.48457336 C289.39280954 382.48387578 287.19607338 382.47609061 284.99926758 382.46826172 C283.47754971 382.46639699 281.95583123 382.46497335 280.43411255 382.463974 C276.42606961 382.46015313 272.41806282 382.45032651 268.41003418 382.43927002 C264.32129404 382.42904665 260.23254806 382.42447439 256.14379883 382.41943359 C248.11904264 382.40870387 240.09431586 382.3916326 232.06958008 382.37060547 C232.34659256 383.46628342 232.62360504 384.56196136 232.90901184 385.69084167 C233.27485789 387.14421927 233.64063274 388.59761479 234.00634766 390.05102539 C234.27980389 391.13144733 234.27980389 391.13144733 234.55878448 392.23369598 C235.84524163 397.35457586 236.9445744 402.4641273 237.75708008 407.68310547 C237.87374023 408.37726563 237.99040039 409.07142578 238.1105957 409.78662109 C240.09406705 422.03483684 240.34474324 434.29029737 240.41967773 446.66967773 C240.43635423 448.68769773 240.46379447 450.70565596 240.50170898 452.72338867 C240.55646414 455.66469261 240.57833126 458.60464212 240.59301758 461.54638672 C240.61568695 462.4433577 240.63835632 463.34032867 240.66171265 464.26448059 C240.64725303 468.55134735 240.47041821 471.44864624 237.72436523 474.85961914 C233.55738458 478.80089154 231.46706693 479.62144593 225.826828 479.63803101 C223.8647364 479.65082596 223.8647364 479.65082596 221.86300659 479.66387939 C220.40997302 479.66318034 218.95693955 479.66225726 217.50390625 479.66113281 C215.97626923 479.66711608 214.44863524 479.67392115 212.92100525 479.68148804 C208.7680038 479.69917771 204.61508473 479.70384471 200.46204925 479.70511961 C196.99542249 479.70701776 193.52881496 479.71437449 190.0621956 479.7214638 C181.88227415 479.73775728 173.70239674 479.74263195 165.52246094 479.74121094 C157.08535382 479.74000982 148.64850265 479.76110346 140.21146029 479.79269826 C132.96804164 479.81885632 125.72470658 479.8295784 118.48124105 479.82830012 C114.15501212 479.82779026 109.82901048 479.83348596 105.5028286 479.85465622 C101.43239996 479.87403033 97.36241558 479.87416898 93.29197121 479.85962296 C91.79964168 479.85753258 90.30728442 479.86224947 88.81500244 479.87434387 C86.77448558 479.88980764 84.73381711 479.87808424 82.69328308 479.86508179 C81.55231265 479.86617132 80.41134222 479.86726086 79.23579693 479.86838341 C75.32128663 479.25296224 73.15849043 477.80907063 70.06958008 475.37060547 C67.01241394 471.13002018 66.78871375 467.73854593 67.06176758 462.71435547 C68.76198803 458.76035442 71.30703414 456.43660899 75.06958008 454.37060547 C79.65102998 453.50905151 84.15806832 453.6119 88.80761719 453.68945312 C90.19779385 453.69114748 91.58797587 453.69019183 92.97814941 453.6867981 C96.73635483 453.68508224 100.49340246 453.72026324 104.25133967 453.76224184 C108.18439094 453.79984574 112.11747114 453.80328176 116.05067444 453.81039429 C123.491591 453.82901496 130.93197626 453.87821372 138.37265927 453.93849123 C146.84658755 454.00564342 155.3205417 454.03856715 163.79466999 454.06866384 C181.21994692 454.13131576 198.64470725 454.236796 216.06958008 454.37060547 C215.68179594 448.88409455 215.2874714 443.39810464 214.8874054 437.91247559 C214.75254353 436.05111025 214.61938648 434.1896205 214.48805237 432.32800293 C212.42103078 403.07653049 207.47716683 375.34410667 185.06958008 354.37060547 C151.77046709 325.51137421 103.21068459 314.82836901 61.79760742 303.03710938 C39.41194499 296.66286271 39.41194499 296.66286271 35.06958008 291.37060547 C33.45735731 288.14615993 33.86394222 284.61808652 33.83129883 281.07373047 C33.82322708 280.2473407 33.81515533 279.42095093 33.80683899 278.56951904 C33.79299636 276.81768899 33.782275 275.06583195 33.77441406 273.31396484 C33.75723591 270.64481851 33.71335718 267.97692216 33.66918945 265.30810547 C33.65905925 263.60498957 33.65054417 261.90186314 33.64379883 260.19873047 C33.62629074 259.40476868 33.60878265 258.61080688 33.59074402 257.79278564 C33.61116135 252.53150922 34.55075135 249.52215236 38.06958008 245.37060547 C40.41923524 243.98679413 42.60409783 242.85353977 45.06958008 241.74560547 C66.64636041 231.0596118 77.3710731 207.77497869 85.00292969 186.06103516 C87.89387853 177.34794113 89.55045872 168.40747866 91.06958008 159.37060547 C91.40989258 157.46988281 91.40989258 157.46988281 91.75708008 155.53076172 C94.67712371 136.53020002 94.60072049 116.09723794 90.06958008 97.37060547 C89.90329102 96.66436035 89.73700195 95.95811523 89.56567383 95.23046875 C85.92712077 80.26860382 79.5663672 66.54190543 70.06958008 54.37060547 C69.60165039 53.75056641 69.1337207 53.13052734 68.65161133 52.49169922 C55.62849092 36.18543921 34.26798717 28.01063801 14.08911133 25.68310547 C-11.90186236 23.41573924 -38.09559907 27.58986086 -58.68041992 44.55810547 C-77.80684051 61.10010464 -85.98869579 85.10769547 -89.93041992 109.37060547 C-90.1024292 110.29494385 -90.27443848 111.21928223 -90.45166016 112.17163086 C-95.77777304 147.75962534 -87.15021412 191.52709332 -66.05932617 220.98388672 C-58.47496646 230.72675817 -50.82608801 237.75618588 -39.84448242 243.45263672 C-35.79749505 245.59566168 -33.83943068 247.20330233 -31.93041992 251.37060547 C-31.63080281 254.30757729 -31.48587362 257.02582244 -31.49682617 259.96044922 C-31.49158432 260.78259415 -31.48634247 261.60473907 -31.48094177 262.45179749 C-31.47453591 264.18570835 -31.47583996 265.91966276 -31.484375 267.65356445 C-31.49288213 270.29636581 -31.46411067 272.93700193 -31.43237305 275.57958984 C-31.43076068 277.26904232 -31.43133925 278.95849861 -31.43432617 280.64794922 C-31.42309219 281.43249985 -31.41185822 282.21705048 -31.40028381 283.02537537 C-31.46609363 288.2461107 -32.48073344 291.22788389 -35.93041992 295.37060547 C-43.59684311 300.01243336 -53.48543833 301.61650672 -62.10083008 303.79736328 C-92.24242066 311.50100971 -122.9410046 320.69116867 -150.93041992 334.37060547 C-151.6472998 334.71945801 -152.36417969 335.06831055 -153.1027832 335.42773438 C-175.25926719 346.34663011 -195.51887208 361.08683257 -203.93041992 385.37060547 C-204.84305987 388.13049899 -205.71089796 390.90163744 -206.55541992 393.68310547 C-206.86527832 394.69594604 -206.86527832 394.69594604 -207.18139648 395.72924805 C-210.91815586 408.59068773 -211.62758923 421.83425842 -212.55541992 435.12060547 C-212.6903233 436.99303835 -212.82573605 438.86543461 -212.96166992 440.73779297 C-213.29045736 445.2816631 -213.61235935 449.82597241 -213.93041992 454.37060547 C-212.85504959 454.3664574 -212.85504959 454.3664574 -211.7579546 454.36222553 C-194.31475203 454.29597567 -176.87158142 454.24632976 -159.42828083 454.21516895 C-150.99283137 454.19969933 -142.55746588 454.17860801 -134.12207031 454.14428711 C-126.76987168 454.11438764 -119.41773386 454.09503116 -112.06547612 454.08833998 C-108.1724073 454.08442864 -104.27951247 454.07523456 -100.3864994 454.0534153 C-96.72165498 454.03304142 -93.0570561 454.02677344 -89.39216042 454.03128242 C-87.40710951 454.03006457 -85.42208529 454.01392713 -83.43710327 453.99734497 C-82.25224838 454.00146896 -81.06739349 454.00559296 -79.84663391 454.00984192 C-78.30493515 454.00569385 -78.30493515 454.00569385 -76.73209095 454.00146198 C-72.69677856 454.53314799 -70.07623154 456.2657157 -67.18041992 459.05810547 C-65.36667472 462.41353408 -64.70524389 465.59890696 -64.93041992 469.37060547 C-66.23705703 473.48651236 -67.8657014 475.74716174 -71.61399937 477.94196987 C-75.20333409 479.48817044 -77.60169379 479.754423 -81.48924255 479.77174377 C-82.7915683 479.78453873 -84.09389404 479.79733368 -85.4356842 479.81051636 C-86.86679105 479.80946797 -88.29789767 479.80808346 -89.72900391 479.80639648 C-91.24561302 479.81537917 -92.76221528 479.8255886 -94.27880859 479.83692932 C-98.38833324 479.86337836 -102.49767037 479.87046052 -106.60727191 479.87237668 C-109.1766426 479.87451183 -111.74596589 479.88092155 -114.31532478 479.88886833 C-123.28414046 479.91660255 -132.25282255 479.92887597 -141.22167969 479.92651367 C-149.5743277 479.92471077 -157.9263948 479.95638282 -166.2788958 480.00374466 C-173.45786309 480.04299767 -180.63664066 480.05906433 -187.81571442 480.05714744 C-192.1001286 480.05638339 -196.38402604 480.06488608 -200.66833305 480.09668159 C-204.69794732 480.12577242 -208.7265524 480.12593247 -212.7562027 480.1041317 C-214.23199758 480.1010001 -215.70785584 480.1080484 -217.18354225 480.12621307 C-229.70689478 480.27034229 -229.70689478 480.27034229 -234.30091858 476.45005798 C-238.46003834 472.09502466 -238.09113868 468.04769971 -238.09838867 462.25341797 C-238.10338127 460.86387405 -238.10338127 460.86387405 -238.10847473 459.44625854 C-238.11355143 457.47068783 -238.11588283 455.49510849 -238.11572266 453.51953125 C-238.11786587 450.56999306 -238.13588981 447.62085642 -238.1550293 444.67138672 C-238.20653462 428.01112451 -237.42698615 411.53232569 -233.36791992 395.30810547 C-233.03630859 393.9072168 -233.03630859 393.9072168 -232.69799805 392.47802734 C-231.88031723 389.05661367 -231.04330657 385.70926541 -229.93041992 382.37060547 C-230.77122604 382.3772673 -231.61203217 382.38392914 -232.47831726 382.39079285 C-240.40873056 382.45094655 -248.33906704 382.49660151 -256.26965618 382.52604198 C-260.34669936 382.54168656 -264.42355375 382.56290255 -268.50048828 382.59692383 C-272.4362301 382.62956071 -276.37179052 382.64746757 -280.30765724 382.6552372 C-281.8079495 382.66077297 -283.30823202 382.67158308 -284.80844688 382.68779564 C-286.91271664 382.70962819 -289.01624036 382.71257007 -291.12060547 382.71118164 C-292.91596992 382.72117439 -292.91596992 382.72117439 -294.74760437 382.73136902 C-299.54816997 382.18723787 -302.03785692 380.38713555 -305.18041992 376.80810547 C-311.99859309 367.31136426 -308.05950638 348.89527223 -306.40869141 337.9206543 C-304.16485011 324.79016484 -299.67753237 313.60144902 -290.93041992 303.37060547 C-290.41092773 302.74025391 -289.89143555 302.10990234 -289.35620117 301.46044922 C-274.82101686 285.3875376 -250.86425147 278.61420123 -230.93041992 272.37060547 C-229.84567383 272.02956787 -229.84567383 272.02956787 -228.73901367 271.68164062 C-225.14298546 270.55485048 -221.54120507 269.44915168 -217.93041992 268.37060547 C-219.13698242 267.50435547 -219.13698242 267.50435547 -220.36791992 266.62060547 C-237.36697322 252.26763122 -243.8394747 228.68544502 -245.93041992 207.37060547 C-247.23410263 185.55859134 -243.17045421 164.59545044 -228.93041992 147.37060547 C-228.3606543 146.67708984 -227.79088867 145.98357422 -227.20385742 145.26904297 C-218.04408533 135.17380479 -203.84522034 128.13438157 -190.26489258 127.18408203 C-169.79912608 126.352671 -152.08681708 128.33607931 -135.99291992 141.99560547 C-122.20868855 155.48920546 -114.75992266 173.94533666 -114.42628479 193.12771606 C-114.41138305 195.22986982 -114.41730432 197.33094828 -114.43041992 199.43310547 C-114.43151764 200.15749817 -114.43261536 200.88189087 -114.43374634 201.62823486 C-114.48502193 213.43529438 -115.64467003 224.29132631 -119.93041992 235.37060547 C-120.32616211 236.41345703 -120.7219043 237.45630859 -121.12963867 238.53076172 C-122.27337273 241.23240595 -123.54300701 243.78659861 -124.93041992 246.37060547 C-125.43186523 247.35287109 -125.93331055 248.33513672 -126.44995117 249.34716797 C-130.59535094 257.01664294 -135.50046342 262.52283819 -141.93041992 268.37060547 C-140.95153809 268.6712793 -140.95153809 268.6712793 -139.95288086 268.97802734 C-127.56406562 272.80532508 -115.31779947 276.73082188 -103.39038086 281.84326172 C-94.0465123 285.78089198 -88.13058099 285.2495693 -78.61791992 282.05810547 C-71.41679708 279.69870934 -64.39485642 277.71597966 -56.93041992 276.37060547 C-56.93041992 271.75060547 -56.93041992 267.13060547 -56.93041992 262.37060547 C-58.58041992 261.71060547 -60.23041992 261.05060547 -61.93041992 260.37060547 C-85.33428793 244.10625347 -98.78464091 219.06101327 -107.21948242 192.47265625 C-107.73824732 190.93880811 -108.32028162 189.42594422 -108.93798828 187.92919922 C-110.65408603 183.5049177 -111.49290716 178.87474468 -112.49291992 174.24560547 C-112.71399414 173.26333984 -112.93506836 172.28107422 -113.1628418 171.26904297 C-115.94568263 158.48983432 -116.17182414 145.86958394 -116.22558594 132.84057617 C-116.23704631 130.91830042 -116.25740256 128.99605497 -116.28710938 127.07397461 C-116.8397384 91.1345639 -105.22287014 55.5933527 -79.93041992 29.37060547 C-57.81436279 8.06588092 -30.06653937 -0.00617446 0 0 Z " fill="#041726" transform="translate(638.930419921875,400.62939453125)"/>
<path d="M0 0 C8.57885503 7.55394757 13.43683234 19.78585098 14.40405273 31.01171875 C15.21311716 50.12858584 12.95061463 70.67274131 0.265625 85.9296875 C-2.83189426 89.11157499 -5.86647992 91.11078057 -10.03515625 92.6328125 C-12.82759424 94.29217698 -13.53479829 95.64460271 -14.796875 98.6796875 C-15.23245818 102.51946846 -15.2152517 106.31916117 -15.171875 110.1796875 C-15.18347656 111.21222656 -15.19507813 112.24476563 -15.20703125 113.30859375 C-15.30264576 120.56506632 -15.30264576 120.56506632 -11.796875 126.6796875 C-8.48766947 128.88570692 -5.48899507 130.22767666 -1.6484375 131.22265625 C-0.65448975 131.48747803 0.33945801 131.7522998 1.36352539 132.02514648 C2.42434326 132.30302002 3.48516113 132.58089355 4.578125 132.8671875 C59.00316899 147.67788509 59.00316899 147.67788509 70.140625 166.0546875 C73.92578046 173.82562504 75.33490273 181.496275 75.78125 190.05078125 C75.8443335 191.15528625 75.8443335 191.15528625 75.90869141 192.28210449 C76.01086415 194.08107457 76.1075592 195.88035435 76.203125 197.6796875 C67.91886431 198.00573679 59.63732874 198.25361076 51.34821606 198.40505791 C47.49780681 198.47779534 43.65181851 198.57618854 39.80395508 198.73583984 C12.80309717 199.82771535 12.80309717 199.82771535 6.79296875 194.6328125 C3.85195109 191.29708025 2.0589141 187.69849451 0.203125 183.6796875 C-18.01119024 161.29529793 -49.83802252 149.6617167 -75.796875 139.6796875 C-75.301875 138.6896875 -75.301875 138.6896875 -74.796875 137.6796875 C-72.5885633 136.94508127 -70.34600114 136.31278061 -68.09375 135.7265625 C-66.70681777 135.351048 -65.32010577 134.97471935 -63.93359375 134.59765625 C-61.74588962 134.0116903 -59.55708046 133.43231476 -57.36376953 132.86767578 C-55.24726243 132.31902271 -53.13949401 131.74354333 -51.03125 131.1640625 C-49.76506836 130.83116211 -48.49888672 130.49826172 -47.19433594 130.15527344 C-42.80224431 128.24769929 -41.40166179 126.68426565 -38.796875 122.6796875 C-38.04439512 119.79254784 -38.04439512 119.79254784 -38.1328125 116.80078125 C-38.12636719 115.71474609 -38.11992188 114.62871094 -38.11328125 113.50976562 C-38.13261719 112.39021484 -38.15195312 111.27066406 -38.171875 110.1171875 C-38.15253906 108.99376953 -38.13320313 107.87035156 -38.11328125 106.71289062 C-38.10346462 100.19802351 -38.10346462 100.19802351 -41.0625 94.5703125 C-43.40048157 92.95376524 -45.70573872 91.40331602 -48.171875 89.9921875 C-59.3336168 82.68699436 -63.48339701 69.49024457 -66.609375 57.1171875 C-69.87752349 40.40294236 -69.04799489 22.3754769 -59.796875 7.6796875 C-53.78738278 -0.71750475 -46.14470895 -5.91559416 -35.9765625 -8.0390625 C-23.46067734 -9.65401542 -10.31788639 -7.58140348 0 0 Z " fill="#EEEFEF" transform="translate(847.796875,560.3203125)"/>
<path d="M0 0 C8.28795854 5.99874418 12.82262842 13.8352382 15.9375 23.40234375 C16.18242187 24.12808594 16.42734375 24.85382812 16.6796875 25.6015625 C21.77454407 43.92210839 17.22059161 66.31827764 8.15234375 82.609375 C4.08825508 88.70968059 -0.35339923 92.40563023 -6.7421875 95.96484375 C-9.32099194 97.34030539 -9.32099194 97.34030539 -11.0625 100.40234375 C-11.37118646 103.0326913 -11.37118646 103.0326913 -11.328125 105.98828125 C-11.33070313 107.08398438 -11.33328125 108.1796875 -11.3359375 109.30859375 C-11.32433594 111.025625 -11.32433594 111.025625 -11.3125 112.77734375 C-11.32023437 113.91429687 -11.32796875 115.05125 -11.3359375 116.22265625 C-11.33207031 117.87007812 -11.33207031 117.87007812 -11.328125 119.55078125 C-11.32474121 121.05390869 -11.32474121 121.05390869 -11.32128906 122.58740234 C-11.04264314 125.61833391 -10.52578513 127.73176812 -9.0625 130.40234375 C-7.34319465 131.52087847 -7.34319465 131.52087847 -5.21484375 131.9921875 C-4.41030762 132.22147949 -3.60577148 132.45077148 -2.77685547 132.68701172 C-1.43324951 133.04110107 -1.43324951 133.04110107 -0.0625 133.40234375 C1.95752574 133.98526833 3.9770337 134.56998936 5.99609375 135.15625 C9.21880607 136.07276473 12.44283072 136.98378167 15.66992188 137.88476562 C17.22356445 138.32852539 17.22356445 138.32852539 18.80859375 138.78125 C19.74630615 139.04494385 20.68401855 139.3086377 21.65014648 139.58032227 C23.9375 140.40234375 23.9375 140.40234375 25.9375 142.40234375 C24.78378906 142.840625 23.63007813 143.27890625 22.44140625 143.73046875 C-24.2546776 161.47899915 -24.2546776 161.47899915 -57.76831055 197.01489258 C-59.71501812 199.72062313 -60.71530103 200.33014551 -64.02481079 201.01834106 C-67.95089227 201.21472732 -71.84305363 201.1896031 -75.76953125 201.0859375 C-77.21967679 201.0728725 -78.66985334 201.06291258 -80.12004089 201.05592346 C-83.92668814 201.02926684 -87.73144887 200.96057136 -91.53735352 200.88299561 C-95.42503336 200.81123086 -99.31301979 200.77938412 -103.20117188 200.74414062 C-110.82247226 200.66919273 -118.44222126 200.54981452 -126.0625 200.40234375 C-125.93880554 197.89132729 -125.80593217 195.38133467 -125.66796875 192.87109375 C-125.63441284 192.17081055 -125.60085693 191.47052734 -125.56628418 190.74902344 C-124.96763264 180.22248068 -122.56148397 170.16537645 -115.0625 162.40234375 C-114.53398437 161.82355469 -114.00546875 161.24476563 -113.4609375 160.6484375 C-100.9975579 148.37722455 -80.51544808 142.76923079 -64.13671875 138.10546875 C-63.44265427 137.9073912 -62.74858978 137.70931366 -62.03349304 137.50523376 C-58.5479496 136.51461198 -55.05850251 135.54286118 -51.56030273 134.59790039 C-50.26151161 134.23730175 -48.96276299 133.87654994 -47.6640625 133.515625 C-46.51244629 133.20407471 -45.36083008 132.89252441 -44.17431641 132.5715332 C-40.80867936 131.30697681 -38.6544695 129.88040317 -36.0625 127.40234375 C-34.49473975 122.69906301 -34.83670689 117.95344603 -34.8125 113.02734375 C-34.791875 111.98578125 -34.77125 110.94421875 -34.75 109.87109375 C-34.55920153 102.56624685 -34.55920153 102.56624685 -38.0625 96.40234375 C-40.05738169 95.04481784 -40.05738169 95.04481784 -42.3125 94.08984375 C-52.87833193 88.52437312 -57.43614441 78.34272622 -61.06640625 67.3671875 C-66.26494564 49.10951535 -66.5360769 29.00848995 -57.375 12.08984375 C-51.32454424 2.7639533 -43.36330228 -2.6250573 -32.61328125 -5.1796875 C-21.74879187 -6.95993308 -9.71513549 -5.36356439 0 0 Z " fill="#EEEFEF" transform="translate(482.0625,557.59765625)"/>
<path d="M0 0 C1.3037709 -0.00983414 2.60754181 -0.01966827 3.95082092 -0.02980042 C5.38351704 -0.0204297 6.81621054 -0.01065044 8.24890137 -0.00050354 C9.76713054 -0.00428914 11.28535625 -0.00979117 12.80357361 -0.01687622 C16.91727375 -0.03081685 21.03055499 -0.01967103 25.1442318 -0.00316501 C29.45357959 0.01070536 33.76290355 0.00422315 38.07226562 0.0007019 C45.30845881 -0.00199865 52.54448597 0.01146203 59.78063965 0.03465271 C68.14110067 0.06126151 76.50128415 0.06300898 84.86177301 0.05126435 C92.91141967 0.040477 100.96096615 0.04668114 109.01060486 0.06081963 C112.43312453 0.06657114 115.8555707 0.06650332 119.27809143 0.06175423 C123.30996075 0.05697425 127.341527 0.06712818 131.3733387 0.08870888 C132.85114075 0.09426305 134.32897201 0.09475462 135.80677605 0.08975601 C137.82748955 0.08377928 139.84823245 0.09817458 141.86889648 0.11352539 C142.99859612 0.11595529 144.12829575 0.11838518 145.2922287 0.12088871 C150.1240097 0.70570054 153.38417707 2.43365036 156.77844238 5.8837738 C159.27175862 11.33025274 158.98597034 16.45857004 158.93054199 22.38011169 C158.93199722 23.6249382 158.93345245 24.86976471 158.93495178 26.15231323 C158.93287115 29.45010786 158.91187431 32.74713189 158.88397217 36.04478455 C158.87194922 38.06354117 158.87358667 40.08179523 158.88049316 42.10057068 C158.89308469 45.98564962 158.88441419 49.87005697 158.86804199 53.75511169 C158.87097763 54.95728836 158.87391327 56.15946503 158.87693787 57.39807129 C158.86425369 58.51951035 158.85156952 59.6409494 158.83850098 60.79637146 C158.83309799 61.77977005 158.82769501 62.76316864 158.8221283 63.77636719 C158.16208795 68.4155101 156.39082573 70.75183744 152.7315588 73.61905003 C149.04746574 75.72211439 147.03325113 76.00356648 142.83093262 76.00914001 C140.86265503 76.02605896 140.86265503 76.02605896 138.85461426 76.0433197 C137.41247336 76.03554354 135.97033466 76.02735093 134.52819824 76.01878357 C133.00011529 76.02420735 131.47203758 76.03133145 129.94396973 76.0400238 C125.80342745 76.05822988 121.66328469 76.05120101 117.5227356 76.03850746 C113.18535299 76.02836565 108.8480041 76.03777642 104.51062012 76.04405212 C97.22735465 76.0513251 89.94425154 76.04175005 82.66101074 76.02268982 C74.24596902 76.00092169 65.83131498 76.00797331 57.41628265 76.02999544 C50.1855208 76.04815945 42.95487551 76.05070289 35.72409821 76.04024076 C31.40800117 76.03401132 27.09208624 76.03315503 22.77600098 76.04638672 C18.71780286 76.05795924 14.66010357 76.04989429 10.60195923 76.02680969 C9.11447985 76.02153003 7.62695835 76.02302372 6.13949585 76.03186035 C4.10566732 76.04282695 2.07174683 76.02662203 0.03796387 76.00914001 C-1.09911011 76.00763191 -2.23618408 76.00612381 -3.40771484 76.00457001 C-8.25149264 75.23246361 -11.4412994 72.95453033 -14.41629028 69.10874939 C-15.72973498 66.12869232 -15.94587184 64.03035669 -15.95373535 60.78050232 C-15.96319183 59.65583557 -15.97264832 58.53116882 -15.98239136 57.37242126 C-15.97631866 56.16710754 -15.97024597 54.96179382 -15.96398926 53.71995544 C-15.96685944 52.47371399 -15.96972961 51.22747253 -15.97268677 49.94346619 C-15.97524823 46.6375807 -15.96319757 43.33211999 -15.94641113 40.02629089 C-15.94055689 38.00298061 -15.94639112 35.98006067 -15.95666504 33.95677185 C-15.97519884 30.065149 -15.97295198 26.17410238 -15.96398926 22.28245544 C-15.97006195 21.07714172 -15.97613464 19.871828 -15.98239136 18.62998962 C-15.97293488 17.50532288 -15.96347839 16.38065613 -15.95373535 15.22190857 C-15.95134857 14.23549377 -15.94896179 13.24907898 -15.94650269 12.23277283 C-15.29831393 7.5850055 -13.52503815 5.25246 -9.86022758 2.38300228 C-6.18609211 0.28447214 -4.19037451 0.00077629 0 0 Z " fill="#041626" transform="translate(568.5655517578125,754.4987945556641)"/>
<path d="M0 0 C40.92 0 81.84 0 124 0 C124 8.25 124 16.5 124 25 C83.08 25 42.16 25 0 25 C0 16.75 0 8.5 0 0 Z " fill="#F0F1F2" transform="translate(578,780)"/>
<path d="M0 0 C0.33 0 0.66 0 1 0 C2 5 2 5 2 20 C-44.86 20 -91.72 20 -140 20 C-136.59566223 17.73044149 -135.43087284 17.75218505 -131.43818665 17.75949097 C-130.28132355 17.75674164 -129.12446045 17.75399231 -127.93254089 17.75115967 C-126.66227554 17.75835022 -125.39201019 17.76554077 -124.08325195 17.77294922 C-122.733073 17.77351332 -121.38289344 17.77319679 -120.03271484 17.77206421 C-116.36560047 17.77148966 -112.69861655 17.7832605 -109.03153253 17.79721212 C-105.19983596 17.80970241 -101.36813651 17.81088864 -97.53642273 17.81326294 C-90.27976205 17.81948272 -83.02316153 17.83590026 -75.76652735 17.85596192 C-67.50543842 17.87830544 -59.24434663 17.88931045 -50.983235 17.89935279 C-33.98878754 17.92026607 -16.99440242 17.95585388 0 18 C0 12.06 0 6.12 0 0 Z " fill="#DFE6EA" transform="translate(853,835)"/>
<path d="M0 0 C2 2 2 2 2 8 C-19.45 8 -40.9 8 -63 8 C-63 7.34 -63 6.68 -63 6 C-42.21 6 -21.42 6 0 6 C0 4.02 0 2.04 0 0 Z " fill="#E3EAED" transform="translate(922,750)"/>
<path d="M0 0 C2.97 0.495 2.97 0.495 6 1 C5.86287598 1.64686768 5.72575195 2.29373535 5.58447266 2.96020508 C4.14245955 10.2225549 3.59227431 17.29564708 3.375 24.6875 C3.31699219 26.33008789 3.31699219 26.33008789 3.2578125 28.00585938 C3.16472748 30.670418 3.07890148 33.33499022 3 36 C2.67 36 2.34 36 2 36 C2 30.06 2 24.12 2 18 C-1.39914975 19.13304992 -2.05254451 20.12518475 -4 23 C-5.38149095 19.26997442 -4.43774626 17.59436565 -3 14 C-2.4176812 11.57189089 -1.8778743 9.13329772 -1.375 6.6875 C-1.11460937 5.43324219 -0.85421875 4.17898438 -0.5859375 2.88671875 C-0.39257812 1.93410156 -0.19921875 0.98148438 0 0 Z " fill="#D9DDE0" transform="translate(753,572)"/>
<path d="M0 0 C4.4840341 -0.04951788 8.96792239 -0.08577526 13.45214844 -0.10986328 C14.97691623 -0.11990744 16.50166484 -0.13354531 18.02636719 -0.15087891 C20.22075138 -0.17519738 22.41488042 -0.18649889 24.609375 -0.1953125 C25.92905273 -0.20578613 27.24873047 -0.21625977 28.60839844 -0.22705078 C31.73220559 -0.0179275 33.40580238 0.33394864 36 2 C31.8538727 3.14807811 27.79322882 3.22576239 23.515625 3.31640625 C22.70003113 3.33718735 21.88443726 3.35796844 21.04412842 3.37937927 C18.44616895 3.44461297 15.84811087 3.50363768 13.25 3.5625 C11.485667 3.60571014 9.72134387 3.64932522 7.95703125 3.69335938 C3.63812116 3.80026745 -0.68088784 3.90160827 -5 4 C-4.67 3.34 -4.34 2.68 -4 2 C-2.68 2 -1.36 2 0 2 C0 1.34 0 0.68 0 0 Z " fill="#D4D8DB" transform="translate(624,398)"/>
<path d="M0 0 C0.66 0 1.32 0 2 0 C3.27959591 2.55919182 3.16816536 4.45484028 3.1875 7.3125 C3.20167969 8.25738281 3.21585938 9.20226562 3.23046875 10.17578125 C2.98824335 13.14406882 2.24026607 15.30867165 1 18 C0.67 18 0.34 18 0 18 C0 12.06 0 6.12 0 0 Z " fill="#03101B" transform="translate(832,661)"/>
<path d="M0 0 C2.06901404 3.10352106 3.80266369 6.2742881 5.5625 9.5625 C6.18253906 10.71878906 6.80257813 11.87507812 7.44140625 13.06640625 C8.31058266 14.70237489 9.17152417 16.34304833 10 18 C7.1875 17.4375 7.1875 17.4375 4 16 C1.13175649 10.65913277 -0.1667824 6.00416656 0 0 Z " fill="#E4E6EB" transform="translate(400,639)"/>
<path d="M0 0 C0.33 0 0.66 0 1 0 C2.33583899 4.84241633 3.25328119 8.93437617 3 14 C2.01 14.33 1.02 14.66 0 15 C-0.66 14.67 -1.32 14.34 -2 14 C-2.042721 12.33388095 -2.04063832 10.66617115 -2 9 C-1.67 8.67 -1.34 8.34 -1 8 C-0.76924918 6.65252916 -0.58846937 5.29622435 -0.4375 3.9375 C-0.293125 2.638125 -0.14875 1.33875 0 0 Z " fill="#E2E7E9" transform="translate(528,580)"/>
<path d="M0 0 C0 0.66 0 1.32 0 2 C-0.969375 2.28875 -1.93875 2.5775 -2.9375 2.875 C-6.10664203 3.64214682 -6.10664203 3.64214682 -7 6 C-10.63 6 -14.26 6 -18 6 C-14.81099544 3.87399696 -12.09585431 2.97863761 -8.4375 1.875 C-7.28121094 1.52179687 -6.12492187 1.16859375 -4.93359375 0.8046875 C-2 0 -2 0 0 0 Z M-12 6 C-10 7 -10 7 -10 7 Z " fill="#D9DFE2" transform="translate(419,696)"/>
<path d="M0 0 C5.5714382 -0.32773166 9.35065585 -0.45379851 14 3 C15.32608822 3.68096422 16.65686601 4.35330586 18 5 C14.02692066 6.32435978 11.19025432 5.18129186 7.3125 4.0625 C6.2596582 3.76956055 6.2596582 3.76956055 5.18554688 3.47070312 C3.45491056 2.98800864 1.72715934 2.49499154 0 2 C0 1.34 0 0.68 0 0 Z " fill="#17222B" transform="translate(694,700)"/>
<path d="M0 0 C2.49361571 1.20381448 4.68143083 2.45428722 7 4 C7.6875 7.125 7.6875 7.125 8 10 C7.01 10.495 7.01 10.495 6 11 C5.1646875 9.576875 5.1646875 9.576875 4.3125 8.125 C1.93429698 4.91121213 0.75965574 4.04434882 -3 3 C-2.01 2.01 -1.02 1.02 0 0 Z " fill="#E2E7E9" transform="translate(720,753)"/>
<path d="M0 0 C1 2 1 2 0 6 C-2.97 5.01 -5.94 4.02 -9 3 C-7.14340032 -0.71319936 -3.69365381 -0.09982848 0 0 Z " fill="#DDE1E7" transform="translate(781,697)"/>
<path d="M0 0 C1.45727574 0.54450556 2.91563538 1.08611801 4.375 1.625 C5.57125 2.07875 6.7675 2.5325 8 3 C7.67 3.66 7.34 4.32 7 5 C-4.52164009 1.92482916 -4.52164009 1.92482916 -10 0 C-6.1714601 -2.65052762 -4.15445351 -1.67776007 0 0 Z " fill="#1B252E" transform="translate(876,698)"/>
<path d="M0 0 C0.33 0.99 0.66 1.98 1 3 C-1.05233685 5.2477975 -2.00667261 6.0022242 -5 7 C-5.66 7.66 -6.32 8.32 -7 9 C-7.99 8.01 -8.98 7.02 -10 6 C-6.7 4.02 -3.4 2.04 0 0 Z " fill="#111C25" transform="translate(465,718)"/>
<path d="M0 0 C2.08412907 0.06023494 4.16744435 0.14908321 6.25 0.25 C7.41015625 0.29640625 8.5703125 0.3428125 9.765625 0.390625 C13.46661382 1.08791275 14.67122429 2.11785184 17 5 C11.0870696 4.35729017 5.65755469 2.80996216 0 1 C0 0.67 0 0.34 0 0 Z " fill="#19232B" transform="translate(664,427)"/>
<path d="M0 0 C0.33 0.66 0.66 1.32 1 2 C1.66 2.33 2.32 2.66 3 3 C2.67 3.33 2.34 3.66 2 4 C1.76636119 5.84891946 1.58696365 7.70488031 1.4375 9.5625 C1.35371094 10.57441406 1.26992188 11.58632813 1.18359375 12.62890625 C1.12300781 13.41136719 1.06242188 14.19382812 1 15 C0.01 15.33 -0.98 15.66 -2 16 C-1.34 10.72 -0.68 5.44 0 0 Z " fill="#DEE5E9" transform="translate(886,610)"/>
<path d="M0 0 C5.63281599 -0.2396943 10.54538831 0.61470179 16 2 C15.67 2.66 15.34 3.32 15 4 C9.76119922 3.44854729 5.02649303 2.57077907 0 1 C0 0.67 0 0.34 0 0 Z " fill="#D5DADF" transform="translate(721,683)"/>
<path d="M0 0 C2.31 1.98 4.62 3.96 7 6 C6.34 6.66 5.68 7.32 5 8 C2.375 7.625 2.375 7.625 0 7 C0 4.69 0 2.38 0 0 Z " fill="#D4DCE2" transform="translate(777,663)"/>
<path d="M0 0 C0.33 0.66 0.66 1.32 1 2 C0.50628906 2.31453125 0.01257813 2.6290625 -0.49609375 2.953125 C-1.13675781 3.38109375 -1.77742187 3.8090625 -2.4375 4.25 C-3.07558594 4.66765625 -3.71367188 5.0853125 -4.37109375 5.515625 C-6.29902057 7.27248877 -6.61479436 8.46089803 -7 11 C-7.99 11 -8.98 11 -10 11 C-8.38972159 6.16916478 -6.23588228 3.24215682 -1.75 0.75 C-0.88375 0.37875 -0.88375 0.37875 0 0 Z " fill="#16202B" transform="translate(842,650)"/>
<path d="M0 0 C0.99 0 1.98 0 3 0 C2.34 1.32 1.68 2.64 1 4 C0.34 4 -0.32 4 -1 4 C-1 6.64 -1 9.28 -1 12 C-1.66 11.67 -2.32 11.34 -3 11 C-2.88590407 9.54077307 -2.75834456 8.08259402 -2.625 6.625 C-2.55539062 5.81289063 -2.48578125 5.00078125 -2.4140625 4.1640625 C-2 2 -2 2 0 0 Z " fill="#1E2931" transform="translate(709,859)"/>
<path d="M0 0 C0.66 0 1.32 0 2 0 C2.50367757 1.45706726 3.00282556 2.91570096 3.5 4.375 C3.91765625 5.59316406 3.91765625 5.59316406 4.34375 6.8359375 C5 9 5 9 5 11 C4.34 11 3.68 11 3 11 C3 10.01 3 9.02 3 8 C2.34 8 1.68 8 1 8 C0.67 5.36 0.34 2.72 0 0 Z " fill="#17202C" transform="translate(940,719)"/>
<path d="M0 0 C2.86453858 3.41016497 4.34703566 6.90694544 6 11 C5.34 11.66 4.68 12.32 4 13 C3.80664062 12.43410156 3.61328125 11.86820313 3.4140625 11.28515625 C3.15367187 10.55167969 2.89328125 9.81820312 2.625 9.0625 C2.24214844 7.96615234 2.24214844 7.96615234 1.8515625 6.84765625 C1.14728587 4.81317884 1.14728587 4.81317884 -1 4 C-0.67 2.68 -0.34 1.36 0 0 Z " fill="#E1E8EB" transform="translate(538,611)"/>
<path d="M0 0 C0.33 0 0.66 0 1 0 C1.33 2.31 1.66 4.62 2 7 C1.34 7 0.68 7 0 7 C0 9.31 0 11.62 0 14 C-0.66 14 -1.32 14 -2 14 C-1.85866501 12.22880197 -1.71176792 10.45804713 -1.5625 8.6875 C-1.48128906 7.70136719 -1.40007813 6.71523438 -1.31640625 5.69921875 C-1 3 -1 3 0 0 Z " fill="#252E38" transform="translate(758,576)"/>
<path d="M0 0 C0.33 1.32 0.66 2.64 1 4 C-1.63250388 5.31625194 -2.80179056 4.74813658 -5.625 4.0625 C-6.85089844 3.77052734 -6.85089844 3.77052734 -8.1015625 3.47265625 C-9.04128906 3.23869141 -9.04128906 3.23869141 -10 3 C-6.67679753 1.28973262 -3.78758921 0 0 0 Z " fill="#D9DEE1" transform="translate(566,707)"/>
<path d="M0 0 C0.94875 0.350625 1.8975 0.70125 2.875 1.0625 C0.48276303 3.45473697 -0.80259676 3.7383631 -4.125 4.0625 C-5.115 3.4025 -6.105 2.7425 -7.125 2.0625 C-6.465 2.0625 -5.805 2.0625 -5.125 2.0625 C-5.125 1.4025 -5.125 0.7425 -5.125 0.0625 C-3.125 -0.9375 -3.125 -0.9375 0 0 Z " fill="#E2E9ED" transform="translate(505.125,697.9375)"/>
<path d="M0 0 C0.99 0.33 1.98 0.66 3 1 C3 1.66 3 2.32 3 3 C5.31 3.33 7.62 3.66 10 4 C10 4.66 10 5.32 10 6 C4.06 4.515 4.06 4.515 -2 3 C-1.34 2.01 -0.68 1.02 0 0 Z " fill="#D8E0E4" transform="translate(860,667)"/>
<path d="M0 0 C-1.69179328 2.04219706 -2.63727666 2.91793306 -5.26171875 3.51171875 C-6.06222656 3.56972656 -6.86273438 3.62773438 -7.6875 3.6875 C-8.49574219 3.75324219 -9.30398438 3.81898438 -10.13671875 3.88671875 C-11.05904297 3.94279297 -11.05904297 3.94279297 -12 4 C-4 -1.33333333 -4 -1.33333333 0 0 Z " fill="#19212B" transform="translate(495,706)"/>
<path d="M0 0 C0.66 0.33 1.32 0.66 2 1 C1.75 4.3125 1.75 4.3125 1 8 C-0.32 8.99 -1.64 9.98 -3 11 C-2.01 7.37 -1.02 3.74 0 0 Z " fill="#D7DFE3" transform="translate(519,632)"/>
<path d="M0 0 C0.99 0.33 1.98 0.66 3 1 C3.33 2.65 3.66 4.3 4 6 C4.99 6 5.98 6 7 6 C6.67 7.65 6.34 9.3 6 11 C3.13546142 7.58983503 1.65296434 4.09305456 0 0 Z " fill="#13202C" transform="translate(540,614)"/>
<path d="M0 0 C0.99 0.33 1.98 0.66 3 1 C2.34 4.3 1.68 7.6 1 11 C0.34 11 -0.32 11 -1 11 C-0.67 7.37 -0.34 3.74 0 0 Z " fill="#1E2832" transform="translate(861,609)"/>
<path d="M0 0 C0.66 0.33 1.32 0.66 2 1 C0.8125 3.4375 0.8125 3.4375 -1 6 C-3.6875 6.8125 -3.6875 6.8125 -6 7 C-4.02 4.69 -2.04 2.38 0 0 Z " fill="#E4E7EA" transform="translate(796,559)"/>
<path d="M0 0 C0.33 0 0.66 0 1 0 C1.19477739 1.62414378 1.38059458 3.24936423 1.5625 4.875 C1.66691406 5.77992188 1.77132812 6.68484375 1.87890625 7.6171875 C2 10 2 10 1 12 C0.34 12 -0.32 12 -1 12 C-0.67 8.04 -0.34 4.08 0 0 Z " fill="#262E3C" transform="translate(525,496)"/>
<path d="M0 0 C1.32 0.33 2.64 0.66 4 1 C3.3125 2.9375 3.3125 2.9375 2 5 C-0.625 5.75 -0.625 5.75 -3 6 C-2.01 4.02 -1.02 2.04 0 0 Z " fill="#DFE6EA" transform="translate(564,463)"/>
<path d="M0 0 C0.99 0.99 1.98 1.98 3 3 C1.71937515 4.7074998 0.38232443 6.37373596 -1 8 C-1.66 8 -2.32 8 -3 8 C-2.45276317 4.62537285 -1.9451 2.91765 0 0 Z " fill="#141E27" transform="translate(343,710)"/>
<path d="M0 0 C0.66 0.33 1.32 0.66 2 1 C2.6328125 3.28515625 2.6328125 3.28515625 3.125 6.0625 C3.29257812 6.98160156 3.46015625 7.90070312 3.6328125 8.84765625 C3.75398437 9.55792969 3.87515625 10.26820313 4 11 C1.4375 8.875 1.4375 8.875 -1 6 C-0.8125 2.6875 -0.8125 2.6875 0 0 Z " fill="#19222C" transform="translate(781,618)"/>
<path d="M0 0 C0.66 0 1.32 0 2 0 C1.34 3.96 0.68 7.92 0 12 C-0.33 12 -0.66 12 -1 12 C-1.02698189 10.37509046 -1.04638757 8.75005367 -1.0625 7.125 C-1.07410156 6.22007812 -1.08570313 5.31515625 -1.09765625 4.3828125 C-1 2 -1 2 0 0 Z " fill="#101921" transform="translate(521,617)"/>
<path d="M0 0 C1.32 0.66 2.64 1.32 4 2 C4 3.32 4 4.64 4 6 C1.525 5.01 1.525 5.01 -1 4 C-0.67 2.68 -0.34 1.36 0 0 Z " fill="#1B2431" transform="translate(721,432)"/>
<path d="M0 0 C0.94875 0.04125 1.8975 0.0825 2.875 0.125 C1.225 1.775 -0.425 3.425 -2.125 5.125 C-3.115 4.135 -4.105 3.145 -5.125 2.125 C-3.125 0.125 -3.125 0.125 0 0 Z " fill="#E2E6EB" transform="translate(546.125,712.875)"/>
<path d="M0 0 C-0.33 0.66 -0.66 1.32 -1 2 C-2.11375 1.979375 -3.2275 1.95875 -4.375 1.9375 C-7.83215921 1.73619282 -7.83215921 1.73619282 -10 3 C-10.66 2.34 -11.32 1.68 -12 1 C-7.53763531 -0.80619523 -4.68965706 -1.11658501 0 0 Z " fill="#DDE3E8" transform="translate(453,554)"/>
<path d="M0 0 C0.66 0.99 1.32 1.98 2 3 C0.68 4.32 -0.64 5.64 -2 7 C-2.99 6.67 -3.98 6.34 -5 6 C-3.35 4.02 -1.7 2.04 0 0 Z " fill="#D3D8DD" transform="translate(578,446)"/>
<path d="M0 0 C0.66 0.33 1.32 0.66 2 1 C2 3.97 2 6.94 2 10 C1.34 10 0.68 10 0 10 C-0.19412181 8.52168779 -0.38012131 7.04230684 -0.5625 5.5625 C-0.66691406 4.73878906 -0.77132812 3.91507813 -0.87890625 3.06640625 C-0.91886719 2.38449219 -0.95882812 1.70257812 -1 1 C-0.67 0.67 -0.34 0.34 0 0 Z " fill="#D4DAE0" transform="translate(851,814)"/>
<path d="M0 0 C1.9375 0.3125 1.9375 0.3125 4 1 C4.33 1.99 4.66 2.98 5 4 C5.66 4.33 6.32 4.66 7 5 C7 5.66 7 6.32 7 7 C4.08482708 5.92598892 2.22189824 5.22189824 0 3 C0 2.01 0 1.02 0 0 Z " fill="#161F26" transform="translate(675,691)"/>
<path d="M0 0 C0 0.66 0 1.32 0 2 C-0.99 2.495 -0.99 2.495 -2 3 C-3.13350534 5.01669827 -3.13350534 5.01669827 -4 7 C-4.66 5.68 -5.32 4.36 -6 3 C-3.375 0 -3.375 0 0 0 Z " fill="#0C1C2B" transform="translate(407,637)"/>
<path d="M0 0 C2.23551759 3.35327639 2.17283528 3.90743657 1.625 7.6875 C1.51414062 8.49574219 1.40328125 9.30398438 1.2890625 10.13671875 C1.19367187 10.75160156 1.09828125 11.36648438 1 12 C0.34 11.34 -0.32 10.68 -1 10 C-0.9765625 7.6171875 -0.9765625 7.6171875 -0.625 4.875 C-0.51414062 3.96492187 -0.40328125 3.05484375 -0.2890625 2.1171875 C-0.19367187 1.41851563 -0.09828125 0.71984375 0 0 Z " fill="#252D38" transform="translate(731,554)"/>
<path d="M0 0 C2.475 0.495 2.475 0.495 5 1 C5 1.99 5 2.98 5 4 C5.66 4.33 6.32 4.66 7 5 C6.34 5.66 5.68 6.32 5 7 C0 1.125 0 1.125 0 0 Z " fill="#0A151C" transform="translate(482,556)"/>
<path d="M0 0 C0.33 0 0.66 0 1 0 C1.2226746 1.43534841 1.42761906 2.87345525 1.625 4.3125 C1.74101563 5.11300781 1.85703125 5.91351562 1.9765625 6.73828125 C2 9 2 9 0 12 C-1.28571429 3.42857143 -1.28571429 3.42857143 0 0 Z " fill="#1A2230" transform="translate(873,793)"/>
<path d="M0 0 C0 0.99 0 1.98 0 3 C-3.3 3 -6.6 3 -10 3 C-4 0 -4 0 0 0 Z " fill="#D2D7DD" transform="translate(437,691)"/>
<path d="M0 0 C0 2.62113708 -0.31292445 4.50935112 -1 7 C-2.65 7 -4.3 7 -6 7 C-4.02 4.69 -2.04 2.38 0 0 Z " fill="#D3DCE2" transform="translate(502,663)"/>
<path d="M0 0 C0.33 0.66 0.66 1.32 1 2 C1.66 2.33 2.32 2.66 3 3 C2.01 3 1.02 3 0 3 C0 3.66 0 4.32 0 5 C-1.32 5.33 -2.64 5.66 -4 6 C-4 5.01 -4 4.02 -4 3 C-2 1.3125 -2 1.3125 0 0 Z " fill="#DFE2E7" transform="translate(708,656)"/>
<path d="M0 0 C-1.39332574 3.36720387 -2.9789286 4.9859524 -6 7 C-6.66 6.67 -7.32 6.34 -8 6 C-7.0479279 4.99403703 -6.08812654 3.99538437 -5.125 3 C-4.59132813 2.443125 -4.05765625 1.88625 -3.5078125 1.3125 C-2 0 -2 0 0 0 Z " fill="#1F2732" transform="translate(702,630)"/>
<path d="M0 0 C1.39195915 4.17587745 -0.17676781 6.13474776 -2 10 C-2.66 10 -3.32 10 -4 10 C-2.8905928 6.51329166 -1.73662334 3.22515763 0 0 Z " fill="#E1E7EB" transform="translate(740,613)"/>
<path d="M0 0 C4 0 4 0 5.484375 1.3125 C6.65625 2.875 7.828125 4.4375 9 6 C4.58763974 6 3.21615077 3.9302707 0 1 C0 0.67 0 0.34 0 0 Z " fill="#19222F" transform="translate(843,557)"/>
<path d="M0 0 C0.99 0.33 1.98 0.66 3 1 C2.01 2.485 2.01 2.485 1 4 C0.01 4 -0.98 4 -2 4 C-2 4.66 -2 5.32 -2 6 C-2.66 6 -3.32 6 -4 6 C-2.84826645 3.53199953 -1.95216435 1.95216435 0 0 Z " fill="#151D2A" transform="translate(558,757)"/>
<path d="M0 0 C0 0.99 0 1.98 0 3 C-2.5 4.6875 -2.5 4.6875 -5 6 C-5.66 5.34 -6.32 4.68 -7 4 C-4.69 2.68 -2.38 1.36 0 0 Z " fill="#DBE1E6" transform="translate(382,709)"/>
<path d="M0 0 C0 0.66 0 1.32 0 2 C-3.62326739 3.2077558 -4.64146369 2.54311128 -8 1 C-4.93251126 -0.86240388 -3.40254489 -1.2151946 0 0 Z " fill="#141F29" transform="translate(897,705)"/>
<path d="M0 0 C0.66 0 1.32 0 2 0 C3.32 2.31 4.64 4.62 6 7 C5.34 7.66 4.68 8.32 4 9 C4 8.34 4 7.68 4 7 C3.34 6.67 2.68 6.34 2 6 C1.27306096 4.02111039 0.60183749 2.02045442 0 0 Z " fill="#E1E6E9" transform="translate(710,457)"/>
<path d="M0 0 C1.69752187 0.25245197 3.38471545 0.57645775 5.0625 0.9375 C5.98160156 1.13214844 6.90070312 1.32679688 7.84765625 1.52734375 C8.91306641 1.76130859 8.91306641 1.76130859 10 2 C10 2.33 10 2.66 10 3 C8.54207116 3.05399736 7.08357288 3.09279177 5.625 3.125 C4.81289063 3.14820313 4.00078125 3.17140625 3.1640625 3.1953125 C1 3 1 3 -1 1 C-0.67 0.67 -0.34 0.34 0 0 Z " fill="#E4E9ED" transform="translate(692,701)"/>
<path d="M0 0 C2.45098556 0.39532025 4.63904279 1.21301426 7 2 C7 2.66 7 3.32 7 4 C2.545 3.01 2.545 3.01 -2 2 C-1.34 1.34 -0.68 0.68 0 0 Z " fill="#D2D9DD" transform="translate(713,679)"/>
<path d="M0 0 C1.98 0 3.96 0 6 0 C5.67 1.32 5.34 2.64 5 4 C3.02 3.34 1.04 2.68 -1 2 C-0.67 1.34 -0.34 0.68 0 0 Z " fill="#E2E8EB" transform="translate(801,649)"/>
<path d="M0 0 C1.32 0.33 2.64 0.66 4 1 C4.33 2.98 4.66 4.96 5 7 C4.01 7.495 4.01 7.495 3 8 C2.01 5.36 1.02 2.72 0 0 Z " fill="#131F2A" transform="translate(763,640)"/>
<path d="M0 0 C0.99 0 1.98 0 3 0 C3.33 1.98 3.66 3.96 4 6 C3.01 6.33 2.02 6.66 1 7 C0.67 4.69 0.34 2.38 0 0 Z " fill="#E3E6E8" transform="translate(552,573)"/>
<path d="M0 0 C2 3 2 3 1.7578125 5.04296875 C1.171875 7.02864583 0.5859375 9.01432292 0 11 C-0.33 11 -0.66 11 -1 11 C-1.125 3.375 -1.125 3.375 0 0 Z " fill="#F3F8FB" transform="translate(757,553)"/>
<path d="M0 0 C0.763125 0.20625 1.52625 0.4125 2.3125 0.625 C-0.60515 2.5701 -2.31287285 3.07776317 -5.6875 3.625 C-5.6875 2.965 -5.6875 2.305 -5.6875 1.625 C-2.6875 -0.375 -2.6875 -0.375 0 0 Z " fill="#121C23" transform="translate(444.6875,552.375)"/>
<path d="M0 0 C0.66 0.33 1.32 0.66 2 1 C-0.31 3.31 -2.62 5.62 -5 8 C-5 5 -5 5 -2.5 2.3125 C-1.675 1.549375 -0.85 0.78625 0 0 Z " fill="#F1F6FA" transform="translate(778,540)"/>
</svg>
